<?xml version="1.0" standalone="no"?>
<!DOCTYPE svg PUBLIC "-//W3C//DTD SVG 20010904//EN"
 "http://www.w3.org/TR/2001/REC-SVG-20010904/DTD/svg10.dtd">
<svg version="1.0" xmlns="http://www.w3.org/2000/svg"
 width="986.000000pt" height="437.000000pt" viewBox="0 0 986.000000 437.000000"
 preserveAspectRatio="xMidYMid meet">

<g transform="translate(0.000000,437.000000) scale(0.100000,-0.100000)"
fill="#1A51BF" stroke="none">
<path d="M1961 4309 c-471 -50 -930 -265 -1274 -598 -456 -441 -700 -1104
-637 -1732 66 -648 413 -1226 949 -1582 630 -417 1441 -470 2118 -138 230 113
395 231 574 410 179 179 297 344 410 574 471 960 153 2128 -740 2720 -406 269
-920 396 -1400 346z m1266 -772 c147 -90 183 -134 183 -227 0 -61 -7 -76 -179
-360 l-129 -215 152 -5 153 -5 -113 -481 c-61 -265 -119 -495 -128 -513 -23
-44 -74 -100 -117 -127 -86 -54 -99 -55 -710 -52 l-564 3 -55 26 c-64 31 -132
96 -159 154 -11 22 -90 357 -176 744 -86 387 -160 712 -165 721 -22 42 -37 45
-234 50 l-191 5 -3 63 -3 62 196 0 c217 0 243 -6 303 -63 19 -18 42 -48 52
-67 9 -19 41 -144 71 -277 l53 -243 58 0 58 0 0 120 c0 99 3 127 19 158 38 73
104 112 191 112 l50 0 0 50 c0 89 41 157 115 191 31 14 64 19 146 19 98 0 111
-2 160 -28 43 -22 59 -38 81 -81 l28 -53 0 -245 0 -244 57 3 57 3 225 375
c124 206 233 385 242 397 8 12 35 34 60 48 62 37 136 31 216 -18z m-2037
-1132 l0 -65 -395 0 -395 0 0 65 0 65 395 0 395 0 0 -65z m0 -260 l0 -65 -265
0 -265 0 0 58 c0 32 3 62 7 65 3 4 123 7 265 7 l258 0 0 -65z m-5 -265 l0 -65
-127 -3 -128 -3 0 71 0 71 128 -3 127 -3 0 -65z m730 -490 c147 -71 221 -254
165 -404 -29 -76 -94 -147 -169 -183 -48 -24 -68 -28 -141 -28 -72 1 -93 5
-135 27 -189 99 -244 334 -115 497 69 87 151 123 271 118 54 -3 89 -10 124
-27z m1181 -3 c149 -76 220 -270 152 -418 -34 -76 -76 -120 -150 -160 -57 -30
-71 -33 -148 -34 -73 0 -93 4 -142 28 -68 33 -121 90 -156 166 -35 74 -37 183
-5 253 38 84 123 160 213 189 14 5 61 7 105 5 62 -2 91 -8 131 -29z"/>
<path d="M3061 3431 c-18 -18 -421 -683 -421 -695 0 -3 69 -6 153 -6 l152 0
168 279 c156 260 178 307 159 338 -12 18 -154 103 -174 103 -10 0 -26 -8 -37
-19z"/>
<path d="M1991 3231 c-16 -16 -21 -34 -21 -70 0 -47 2 -51 39 -72 78 -44 101
-101 101 -256 l0 -103 65 0 65 0 0 234 c0 292 6 279 -133 284 -86 4 -97 2
-116 -17z"/>
<path d="M1731 2971 c-19 -19 -21 -33 -21 -131 l0 -110 136 0 136 0 -4 110
c-4 142 -6 144 -132 148 -85 4 -96 2 -115 -17z"/>
<path d="M1500 2585 c0 -36 170 -776 185 -804 9 -17 34 -45 57 -61 l41 -30
576 0 576 0 37 23 c44 27 71 61 86 107 11 34 182 763 182 774 0 3 -391 6 -870
6 -771 0 -870 -2 -870 -15z m692 -440 c48 -154 88 -281 88 -283 0 -2 -28 -2
-61 0 l-62 3 -16 55 -17 55 -75 3 -76 3 -16 -61 -17 -60 -61 0 c-45 0 -60 3
-57 13 3 6 43 135 89 285 l84 273 54 -3 55 -3 88 -280z m343 88 c27 -106 52
-193 55 -193 3 0 28 87 56 193 l50 192 77 3 77 3 0 -286 0 -285 -62 0 -61 0 7
182 c3 100 5 180 2 177 -2 -2 -16 -47 -30 -99 -15 -52 -39 -132 -52 -177 l-25
-83 -39 0 -39 0 -20 68 c-11 37 -34 117 -52 177 -17 61 -33 112 -35 114 -2 2
-1 -77 3 -177 l6 -182 -61 0 -62 0 0 285 0 286 78 -3 77 -3 50 -192z"/>
<path d="M2022 2172 c-12 -48 -22 -90 -22 -94 0 -5 23 -8 51 -8 48 0 51 1 45
23 -3 12 -14 51 -22 87 -9 36 -20 68 -23 72 -4 4 -16 -32 -29 -80z"/>
<path d="M1704 1279 c-35 -10 -99 -75 -114 -115 -27 -70 2 -172 62 -217 82
-63 184 -58 258 14 73 71 79 182 13 260 -50 59 -137 82 -219 58z"/>
<path d="M2864 1271 c-121 -55 -146 -219 -47 -313 78 -74 182 -75 263 -2 47
43 64 89 58 160 -11 135 -148 212 -274 155z"/>
<path d="M6709 3604 c-110 -34 -195 -122 -239 -251 -21 -61 -24 -90 -28 -273
-3 -162 0 -219 12 -273 32 -138 103 -235 209 -283 57 -27 71 -29 177 -29 104
0 121 3 172 27 107 50 179 148 209 283 8 38 13 128 13 245 0 199 -10 270 -50
355 -46 99 -119 165 -218 198 -61 21 -192 21 -257 1z m213 -192 c17 -10 40
-40 56 -72 l27 -55 0 -235 c0 -231 0 -236 -25 -284 -31 -62 -64 -87 -123 -93
-34 -4 -57 0 -89 16 -89 43 -113 137 -105 410 5 195 17 248 66 295 50 48 130
56 193 18z"/>
<path d="M4927 3603 c-3 -5 -80 -248 -171 -541 -92 -293 -169 -539 -172 -547
-5 -13 12 -15 113 -15 l119 0 29 113 30 112 152 3 152 3 15 -53 c8 -29 22 -79
30 -111 8 -33 17 -61 19 -63 2 -3 56 -3 119 -2 l115 3 -132 420 c-72 231 -151
480 -174 553 l-42 132 -99 0 c-54 0 -101 -3 -103 -7z m157 -504 c25 -97 46
-179 46 -183 0 -3 -45 -6 -100 -6 -73 0 -100 3 -100 13 -1 30 95 375 101 364
4 -7 28 -91 53 -188z"/>
<path d="M5580 3056 l0 -556 210 0 c274 0 344 15 420 92 52 52 73 110 78 215
4 81 2 97 -21 146 -23 51 -78 107 -105 107 -18 0 -16 3 37 56 68 68 89 138 72
243 -13 84 -35 126 -92 174 -70 60 -116 70 -371 75 l-228 4 0 -556z m415 352
c37 -17 55 -57 55 -123 0 -106 -39 -139 -170 -140 l-75 0 -3 138 -3 137 85 0
c47 0 97 -5 111 -12z m23 -444 c34 -24 52 -68 52 -129 0 -31 -7 -69 -15 -85
-26 -51 -50 -60 -157 -60 l-98 0 0 145 0 145 98 0 c72 0 103 -4 120 -16z"/>
<path d="M7370 3515 l0 -95 224 -2 225 -3 -225 -390 -224 -390 0 -67 0 -68
360 0 361 0 -3 93 -3 92 -222 3 c-123 1 -223 5 -223 8 0 3 99 181 220 394
l220 388 0 66 0 66 -355 0 -355 0 0 -95z"/>
<path d="M8190 3515 l0 -95 228 -2 228 -3 -222 -385 -223 -385 0 -72 -1 -73
360 0 361 0 -3 93 -3 92 -226 5 -226 5 224 394 223 394 0 63 0 64 -360 0 -360
0 0 -95z"/>
<path d="M9067 3603 c-4 -3 -7 -253 -7 -555 l0 -548 115 0 115 0 0 555 0 555
-108 0 c-60 0 -112 -3 -115 -7z"/>
<path d="M4490 1045 l0 -555 112 0 111 0 -5 368 c-4 271 -3 358 5 332 6 -19
54 -183 107 -365 l96 -330 76 -3 77 -3 10 38 c6 21 56 191 111 378 l101 340
-6 -95 c-3 -52 -8 -222 -12 -377 l-6 -283 111 0 112 0 0 555 0 555 -143 0
-144 0 -98 -377 c-90 -347 -112 -427 -115 -413 0 3 -47 181 -103 395 l-102
390 -148 3 -147 3 0 -556z"/>
<path d="M5949 1598 c0 -2 -78 -250 -172 -553 l-173 -550 114 -3 c63 -1 116
-1 118 1 2 2 17 53 32 113 l29 109 154 0 154 0 29 -112 29 -113 118 0 c66 0
119 1 119 3 0 1 -78 250 -173 552 l-173 550 -102 3 c-56 1 -102 1 -103 0z
m155 -500 c25 -101 46 -186 46 -190 0 -5 -45 -8 -100 -8 -55 0 -100 3 -100 8
-1 17 95 372 101 372 3 0 27 -82 53 -182z"/>
<path d="M6610 1046 l0 -556 110 0 110 0 0 205 0 205 54 0 54 0 26 -62 c14
-35 52 -126 84 -203 l58 -140 123 -3 c97 -2 122 0 118 10 -3 7 -46 108 -96
225 -50 116 -91 215 -91 220 0 5 20 25 44 46 26 22 56 60 73 94 26 53 28 67
28 173 0 135 -16 182 -85 249 -76 73 -121 84 -382 89 l-228 4 0 -556z m425
342 c82 -65 70 -256 -19 -293 -21 -9 -67 -15 -111 -15 l-75 0 0 165 0 165 89
0 c75 0 92 -3 116 -22z"/>
<path d="M7470 1045 l0 -555 110 0 110 0 0 157 0 156 41 54 c23 29 45 53 49
53 4 0 51 -95 105 -210 l99 -210 133 0 134 0 -65 122 c-137 262 -256 493 -256
499 0 4 65 107 145 229 80 122 150 231 156 241 9 18 4 19 -125 19 l-134 0
-139 -242 -138 -243 -3 243 -2 242 -110 0 -110 0 0 -555z"/>
<path d="M8330 1045 l0 -555 320 0 321 0 -3 93 -3 92 -207 3 -208 2 0 145 0
145 175 0 175 0 0 90 0 90 -172 2 -173 3 -3 127 -3 128 208 2 208 3 3 93 3 92
-321 0 -320 0 0 -555z"/>
<path d="M9050 1505 l0 -95 135 0 135 0 0 -460 0 -460 110 0 110 0 0 460 0
460 135 0 135 0 0 95 0 95 -380 0 -380 0 0 -95z"/>
</g>
</svg>
