<?xml version="1.0" standalone="no"?>
<!DOCTYPE svg PUBLIC "-//W3C//DTD SVG 20010904//EN"
 "http://www.w3.org/TR/2001/REC-SVG-20010904/DTD/svg10.dtd">
<svg version="1.0" xmlns="http://www.w3.org/2000/svg"
 width="715.000000pt" height="315.000000pt" viewBox="0 0 715.000000 315.000000"
 preserveAspectRatio="xMidYMid meet">

<g transform="translate(0.000000,315.000000) scale(0.100000,-0.100000)"
fill="#1A51BF" stroke="none">
<path d="M1480 3104 c-255 -33 -483 -113 -677 -239 -360 -234 -595 -587 -680
-1020 -24 -125 -24 -405 0 -530 98 -502 412 -910 859 -1120 212 -98 401 -139
648 -139 247 0 436 41 648 139 447 210 762 619 859 1120 24 125 24 405 0 530
-124 636 -588 1108 -1217 1236 -93 19 -361 33 -440 23z m905 -568 c107 -60
140 -111 123 -188 -4 -20 -55 -114 -112 -210 l-104 -173 109 -3 c99 -2 110 -4
105 -20 -3 -9 -37 -154 -76 -322 -87 -375 -91 -389 -141 -439 -66 -66 -66 -66
-534 -66 l-420 0 -55 31 c-95 54 -95 54 -224 632 -76 344 -120 520 -131 532
-15 17 -35 20 -154 22 l-136 3 -3 48 -3 47 138 0 c124 0 144 -2 183 -22 25
-13 54 -37 65 -54 13 -18 36 -102 60 -212 l40 -182 36 0 36 0 5 88 c3 54 12
100 22 120 23 44 71 72 124 72 41 0 42 1 42 33 0 51 39 119 80 139 40 21 134
24 195 7 21 -6 54 -26 72 -44 l33 -33 0 -191 0 -191 43 0 42 1 163 273 c152
255 195 315 232 329 39 14 86 5 145 -27z m-1465 -811 l0 -45 -285 0 -285 0 0
45 0 45 285 0 285 0 0 -45z m-2 -187 l3 -48 -190 0 -191 0 0 50 0 50 188 -2
187 -3 3 -47z m0 -185 l-3 -48 -92 -3 -93 -3 0 51 0 50 96 0 95 0 -3 -47z
m517 -357 c127 -60 172 -193 107 -317 -72 -140 -249 -167 -368 -57 -43 40 -74
108 -74 163 0 54 32 128 75 170 69 69 168 85 260 41z m852 1 c43 -23 93 -75
110 -116 20 -47 19 -138 -2 -186 -45 -110 -162 -165 -279 -131 -106 31 -166
110 -166 221 0 99 48 176 135 217 48 23 153 20 202 -5z"/>
<path d="M2111 2219 c-83 -138 -151 -252 -151 -255 0 -2 49 -4 109 -4 l108 0
123 204 c88 148 120 210 115 225 -8 26 -95 81 -128 81 -23 0 -41 -26 -176
-251z"/>
<path d="M1492 2318 c-7 -7 -12 -28 -12 -48 0 -31 6 -40 38 -61 46 -30 61 -70
61 -171 l1 -78 45 0 45 0 0 168 c0 202 0 202 -101 202 -37 0 -70 -5 -77 -12z"/>
<path d="M1302 2128 c-7 -7 -12 -43 -12 -90 l0 -78 95 0 95 0 0 78 c0 47 -5
83 -12 90 -7 7 -41 12 -83 12 -42 0 -76 -5 -83 -12z"/>
<path d="M1140 1855 c0 -32 126 -558 138 -580 37 -64 45 -65 477 -65 385 0
391 0 435 23 25 12 51 34 58 49 7 15 39 143 73 285 33 142 62 266 65 276 5 16
-29 17 -620 17 -344 0 -626 -2 -626 -5z m419 -147 c5 -13 36 -92 69 -176 l61
-153 -36 3 c-33 3 -38 7 -51 46 l-14 42 -69 0 -70 0 -20 -45 c-17 -39 -24 -45
-49 -45 -17 0 -30 4 -30 10 0 5 26 76 58 157 33 82 62 156 65 166 10 27 75 23
86 -5z m295 -95 l61 -112 49 92 c74 140 72 137 111 137 l35 0 0 -175 0 -175
-30 0 -29 0 -3 123 -3 122 -55 -100 c-41 -75 -60 -100 -75 -100 -15 0 -34 25
-75 100 l-55 100 -3 -122 -3 -123 -29 0 -30 0 0 176 0 175 37 -3 c36 -3 38 -6
97 -115z"/>
<path d="M1489 1593 c-13 -37 -25 -71 -27 -75 -2 -4 21 -8 52 -8 31 0 56 2 56
4 0 5 -51 140 -54 143 -1 2 -13 -27 -27 -64z"/>
<path d="M1310 923 c-59 -12 -110 -73 -110 -133 0 -139 180 -191 256 -75 61
94 -34 229 -146 208z"/>
<path d="M2135 915 c-104 -37 -124 -160 -39 -235 108 -94 276 43 206 170 -36
66 -98 90 -167 65z"/>
<path d="M4878 2481 c-147 -58 -219 -164 -219 -324 0 -76 7 -108 37 -167 95
-190 383 -235 538 -84 152 148 128 431 -47 541 -86 54 -219 69 -309 34z m227
-115 c57 -30 94 -96 102 -178 14 -155 -74 -267 -210 -268 -85 0 -150 39 -190
115 -31 60 -30 183 2 248 51 104 186 142 296 83z"/>
<path d="M3611 2468 c-5 -13 -64 -162 -130 -331 -67 -169 -121 -310 -121 -312
0 -3 24 -5 54 -5 64 0 71 7 106 99 l26 66 139 0 139 0 26 -66 c35 -92 42 -99
106 -99 30 0 54 2 54 4 0 2 -58 152 -129 332 l-129 329 -66 3 c-61 3 -67 1
-75 -20z m179 -390 c0 -5 -47 -8 -105 -8 -58 0 -105 3 -105 7 0 4 23 71 52
150 l52 144 53 -143 c29 -79 53 -146 53 -150z"/>
<path d="M4080 2156 l0 -336 155 0 c211 0 286 26 326 114 46 101 7 200 -89
225 -25 7 -25 7 11 29 49 29 77 76 77 132 0 62 -28 110 -81 140 -42 24 -54 25
-221 28 l-178 4 0 -336z m299 233 c73 -25 81 -137 12 -169 -14 -7 -61 -15
-103 -18 l-78 -5 0 102 0 101 69 0 c37 0 82 -5 100 -11z m53 -308 c31 -35 35
-68 14 -110 -21 -39 -56 -51 -151 -51 l-85 0 0 101 0 102 97 -5 c93 -5 98 -7
125 -37z"/>
<path d="M5420 2445 l0 -45 165 0 c91 0 165 -4 165 -8 0 -5 -79 -120 -175
-257 -143 -202 -175 -254 -175 -281 l0 -34 255 0 255 0 0 50 0 50 -175 0 -174
0 161 228 c193 272 198 279 198 315 l0 27 -250 0 -250 0 0 -45z"/>
<path d="M6000 2445 l0 -45 165 0 c91 0 165 -2 165 -5 0 -3 -77 -114 -171
-247 -170 -240 -189 -272 -189 -309 0 -18 10 -19 260 -19 l260 0 0 50 0 50
-176 2 -175 3 175 247 c148 208 176 253 176 283 l0 35 -245 0 -245 0 0 -45z"/>
<path d="M6600 2155 l0 -335 65 0 65 0 0 335 0 335 -65 0 -65 0 0 -335z"/>
<path d="M3290 935 l0 -335 56 0 55 0 -3 240 c-2 131 0 236 4 232 3 -4 51 -90
106 -192 108 -200 126 -219 174 -188 13 9 66 97 123 204 l100 189 3 -242 2
-243 55 0 55 0 0 335 0 336 -66 -3 -67 -3 -59 -110 c-33 -60 -86 -160 -118
-221 l-58 -111 -50 96 c-28 53 -81 152 -119 221 l-68 125 -62 3 -63 3 0 -336z"/>
<path d="M4347 1258 c-3 -7 -60 -152 -127 -323 -67 -171 -124 -316 -127 -322
-6 -15 93 -18 115 -5 7 5 25 42 41 83 l28 74 141 3 140 3 21 -64 c33 -97 42
-107 107 -107 30 0 54 3 54 8 0 4 -58 153 -128 332 l-128 325 -66 3 c-46 2
-67 -1 -71 -10z m123 -252 c27 -76 50 -142 50 -147 0 -5 -48 -9 -106 -9 -81 0
-105 3 -102 13 3 6 27 73 54 149 27 75 50 135 51 134 1 -1 25 -64 53 -140z"/>
<path d="M4820 936 l0 -336 60 0 60 0 0 131 0 130 48 -3 47 -3 72 -110 c40
-60 82 -118 94 -127 15 -13 39 -18 80 -18 32 0 59 2 59 5 0 10 -152 228 -178
257 l-24 26 40 21 c23 12 53 37 69 58 25 33 28 44 28 114 0 91 -15 119 -86
159 -41 23 -55 25 -206 28 l-163 4 0 -336z m267 233 c52 -19 73 -48 73 -99 0
-36 -6 -53 -24 -73 -28 -30 -91 -49 -149 -45 l-42 3 -3 99 c-1 55 0 106 2 113
7 16 102 18 143 2z"/>
<path d="M5430 935 l0 -335 60 0 59 0 3 147 c3 134 5 148 21 151 44 9 66 -11
175 -153 l112 -145 71 0 c56 0 69 3 62 13 -6 6 -63 83 -127 170 -64 87 -123
160 -131 163 -9 4 26 54 115 162 l128 157 -65 3 c-39 2 -70 -2 -79 -9 -7 -6
-58 -67 -111 -135 -94 -120 -123 -144 -158 -130 -12 4 -15 30 -15 141 l0 135
-60 0 -60 0 0 -335z"/>
<path d="M6080 935 l0 -335 210 0 210 0 0 50 0 50 -150 0 -150 0 0 95 0 95
120 0 120 0 0 50 0 50 -120 0 -121 0 3 93 3 92 148 3 147 3 0 44 0 45 -210 0
-210 0 0 -335z"/>
<path d="M6560 1220 l0 -50 100 0 100 0 0 -285 0 -285 60 0 60 0 0 285 0 285
105 0 105 0 0 50 0 50 -265 0 -265 0 0 -50z"/>
</g>
</svg>
