<?xml version="1.0" standalone="no"?>
<!DOCTYPE svg PUBLIC "-//W3C//DTD SVG 20010904//EN"
 "http://www.w3.org/TR/2001/REC-SVG-20010904/DTD/svg10.dtd">
<svg version="1.0" xmlns="http://www.w3.org/2000/svg"
 width="322.000000pt" height="317.000000pt" viewBox="0 0 322.000000 317.000000"
 preserveAspectRatio="xMidYMid meet">

<g transform="translate(0.000000,317.000000) scale(0.100000,-0.100000)"
fill="#1A51BF" stroke="none">
<path d="M1460 3114 c-255 -33 -483 -113 -677 -239 -360 -234 -595 -587 -680
-1020 -24 -125 -24 -405 0 -530 98 -502 412 -910 859 -1120 212 -98 401 -139
648 -139 247 0 436 41 648 139 447 210 762 619 859 1120 24 125 24 405 0 530
-124 636 -588 1108 -1217 1236 -93 19 -361 33 -440 23z m905 -568 c107 -60
140 -111 123 -188 -4 -20 -55 -114 -112 -210 l-104 -173 109 -3 c99 -2 110 -4
105 -20 -3 -9 -37 -154 -76 -322 -87 -375 -91 -389 -141 -439 -66 -66 -66 -66
-534 -66 l-420 0 -55 31 c-95 54 -95 54 -224 632 -76 344 -120 520 -131 532
-15 17 -35 20 -154 22 l-136 3 -3 48 -3 47 138 0 c124 0 144 -2 183 -22 25
-13 54 -37 65 -54 13 -18 36 -102 60 -212 l40 -182 36 0 36 0 5 88 c3 54 12
100 22 120 23 44 71 72 124 72 41 0 42 1 42 33 0 51 39 119 80 139 40 21 134
24 195 7 21 -6 54 -26 72 -44 l33 -33 0 -191 0 -191 43 0 42 1 163 273 c152
255 195 315 232 329 39 14 86 5 145 -27z m-1465 -811 l0 -45 -285 0 -285 0 0
45 0 45 285 0 285 0 0 -45z m-2 -187 l3 -48 -190 0 -191 0 0 50 0 50 188 -2
187 -3 3 -47z m0 -185 l-3 -48 -92 -3 -93 -3 0 51 0 50 96 0 95 0 -3 -47z
m517 -357 c127 -60 172 -193 107 -317 -72 -140 -249 -167 -368 -57 -43 40 -74
108 -74 163 0 54 32 128 75 170 69 69 168 85 260 41z m852 1 c43 -23 93 -75
110 -116 20 -47 19 -138 -2 -186 -45 -110 -162 -165 -279 -131 -106 31 -166
110 -166 221 0 99 48 176 135 217 48 23 153 20 202 -5z"/>
<path d="M2091 2229 c-83 -138 -151 -252 -151 -255 0 -2 49 -4 109 -4 l108 0
123 204 c88 148 120 210 115 225 -8 26 -95 81 -128 81 -23 0 -41 -26 -176
-251z"/>
<path d="M1472 2328 c-7 -7 -12 -28 -12 -48 0 -31 6 -40 38 -61 46 -30 61 -70
61 -171 l1 -78 45 0 45 0 0 168 c0 202 0 202 -101 202 -37 0 -70 -5 -77 -12z"/>
<path d="M1282 2138 c-7 -7 -12 -43 -12 -90 l0 -78 95 0 95 0 0 78 c0 47 -5
83 -12 90 -7 7 -41 12 -83 12 -42 0 -76 -5 -83 -12z"/>
<path d="M1120 1865 c0 -32 126 -558 138 -580 37 -64 45 -65 477 -65 385 0
391 0 435 23 25 12 51 34 58 49 7 15 39 143 73 285 33 142 62 266 65 276 5 16
-29 17 -620 17 -344 0 -626 -2 -626 -5z m419 -147 c5 -13 36 -92 69 -176 l61
-153 -36 3 c-33 3 -38 7 -51 46 l-14 42 -69 0 -70 0 -20 -45 c-17 -39 -24 -45
-49 -45 -17 0 -30 4 -30 10 0 5 26 76 58 157 33 82 62 156 65 166 10 27 75 23
86 -5z m295 -95 l61 -112 49 92 c74 140 72 137 111 137 l35 0 0 -175 0 -175
-30 0 -29 0 -3 123 -3 122 -55 -100 c-41 -75 -60 -100 -75 -100 -15 0 -34 25
-75 100 l-55 100 -3 -122 -3 -123 -29 0 -30 0 0 176 0 175 37 -3 c36 -3 38 -6
97 -115z"/>
<path d="M1469 1603 c-13 -37 -25 -71 -27 -75 -2 -4 21 -8 52 -8 31 0 56 2 56
4 0 5 -51 140 -54 143 -1 2 -13 -27 -27 -64z"/>
<path d="M1290 933 c-59 -12 -110 -73 -110 -133 0 -139 180 -191 256 -75 61
94 -34 229 -146 208z"/>
<path d="M2115 925 c-104 -37 -124 -160 -39 -235 108 -94 276 43 206 170 -36
66 -98 90 -167 65z"/>
</g>
</svg>
