<?xml version="1.0" standalone="no"?>
<!DOCTYPE svg PUBLIC "-//W3C//DTD SVG 20010904//EN"
 "http://www.w3.org/TR/2001/REC-SVG-20010904/DTD/svg10.dtd">
<svg version="1.0" xmlns="http://www.w3.org/2000/svg"
 width="717.000000pt" height="313.000000pt" viewBox="0 0 717.000000 313.000000"
 preserveAspectRatio="xMidYMid meet">

<g transform="translate(0.000000,313.000000) scale(0.100000,-0.100000)"
fill="#1A51BF" stroke="none">
<path d="M1510 3094 c-255 -33 -483 -113 -677 -239 -360 -234 -595 -587 -680
-1020 -24 -124 -24 -404 0 -530 124 -641 600 -1118 1237 -1241 132 -25 408
-25 540 0 635 122 1114 601 1236 1236 25 132 25 408 0 540 -122 635 -603 1116
-1236 1235 -83 16 -350 28 -420 19z m889 -551 c29 -15 72 -44 95 -64 39 -35
41 -39 41 -95 0 -57 -3 -64 -107 -237 -60 -98 -108 -180 -108 -182 0 -3 49 -6
108 -7 l108 -3 -76 -325 c-90 -381 -93 -391 -133 -437 -64 -73 -61 -73 -538
-73 l-425 0 -52 26 c-97 48 -96 45 -226 629 -74 329 -122 525 -132 536 -14 16
-36 19 -153 21 l-136 3 -3 48 -3 47 138 0 c124 0 143 -2 183 -22 24 -13 52
-34 62 -48 11 -15 37 -106 60 -213 l42 -187 37 0 37 0 4 88 c5 100 23 143 71
172 18 11 50 20 73 20 l41 0 5 50 c6 61 44 114 94 130 48 16 170 8 212 -14 65
-34 72 -59 72 -264 l0 -183 42 3 42 3 171 285 c120 199 180 290 201 302 41 25
90 22 153 -9z m-1449 -818 l0 -45 -285 0 -285 0 0 45 0 45 285 0 285 0 0 -45z
m-5 -185 l0 -45 -187 -3 -188 -2 0 50 0 50 188 -2 187 -3 0 -45z m3 -187 l-3
-48 -92 -3 -93 -3 0 51 0 50 96 0 95 0 -3 -47z m517 -352 c113 -51 165 -188
114 -301 -55 -122 -183 -174 -307 -125 -54 22 -116 92 -132 150 -31 109 28
235 130 279 49 21 146 20 195 -3z m840 0 c149 -68 182 -263 64 -380 -87 -87
-226 -86 -327 3 -110 97 -79 301 57 373 56 29 147 31 206 4z"/>
<path d="M2283 2458 c-17 -22 -293 -486 -293 -492 0 -3 48 -6 108 -6 l107 0
122 203 c81 135 120 210 117 223 -7 25 -97 84 -128 84 -13 0 -28 -6 -33 -12z"/>
<path d="M1522 2318 c-7 -7 -12 -29 -12 -50 0 -32 5 -40 30 -53 45 -23 63 -68
68 -167 l4 -88 44 0 44 0 0 163 c0 204 -2 207 -99 207 -39 0 -72 -5 -79 -12z"/>
<path d="M1350 2137 c-23 -12 -25 -19 -28 -95 l-3 -82 96 0 95 0 0 73 c0 43
-5 80 -12 89 -18 22 -115 32 -148 15z"/>
<path d="M1170 1860 c0 -35 124 -560 138 -584 9 -16 33 -37 52 -47 32 -18 63
-19 415 -19 219 0 395 4 416 10 76 21 85 41 159 354 37 157 64 288 62 291 -11
10 -1242 5 -1242 -5z m405 -126 c12 -5 165 -301 165 -320 0 -12 -36 -34 -55
-34 -17 0 -28 10 -42 38 -18 37 -19 37 -83 40 l-66 3 -17 -36 c-9 -20 -24 -38
-33 -42 -20 -8 -64 13 -64 31 0 23 147 313 162 319 7 3 14 6 15 6 1 1 9 -2 18
-5z m255 -4 c10 -5 41 -41 70 -80 29 -39 56 -68 60 -63 4 4 28 36 54 70 62 83
90 98 120 67 13 -13 16 -42 16 -160 0 -150 -7 -184 -40 -184 -47 0 -50 7 -51
109 0 93 0 95 -17 71 -9 -14 -31 -40 -48 -59 -39 -43 -60 -37 -108 31 l-36 52
0 -90 c0 -95 -8 -114 -45 -114 -41 0 -45 16 -45 182 0 139 2 158 18 167 22 13
29 13 52 1z"/>
<path d="M1541 1560 c-10 -29 -9 -30 20 -30 l30 0 -16 30 c-9 17 -17 30 -19
30 -2 0 -9 -13 -15 -30z"/>
<path d="M1304 910 c-54 -27 -79 -72 -72 -132 8 -74 65 -128 133 -128 38 0
104 39 121 72 35 67 5 161 -60 192 -45 21 -73 20 -122 -4z"/>
<path d="M2150 913 c-101 -52 -105 -182 -8 -244 69 -43 175 1 199 82 11 34 10
46 -7 86 -10 25 -31 55 -45 65 -37 28 -97 33 -139 11z"/>
<path d="M4843 2426 c-89 -28 -157 -89 -197 -176 -80 -176 -9 -375 163 -453
68 -32 189 -31 255 2 111 55 177 157 184 287 7 135 -38 229 -141 296 -87 57
-174 72 -264 44z m169 -168 c57 -33 83 -80 83 -154 0 -49 -5 -68 -27 -101 -65
-98 -199 -98 -272 0 -17 23 -21 43 -21 102 0 59 4 79 21 102 55 73 140 94 216
51z"/>
<path d="M3622 2413 c-17 -15 -241 -467 -272 -549 -12 -30 19 -69 66 -84 44
-15 64 0 105 83 l29 57 123 0 124 0 23 -52 c27 -61 57 -98 78 -98 24 0 91 42
98 62 7 22 -248 555 -278 581 -11 9 -33 17 -48 17 -15 0 -37 -8 -48 -17z m81
-308 l27 -55 -60 0 -60 0 27 55 c15 30 30 55 33 55 3 0 18 -25 33 -55z"/>
<path d="M4066 2414 c-14 -13 -16 -55 -16 -309 0 -292 0 -294 22 -309 18 -13
53 -16 173 -16 143 0 154 1 204 26 72 36 104 86 109 170 3 50 0 72 -18 109
-13 27 -19 52 -15 63 43 104 7 215 -85 262 -34 18 -59 20 -199 20 -132 0 -162
-3 -175 -16z m299 -144 c22 -8 26 -15 23 -42 -3 -30 -7 -34 -52 -45 -59 -15
-60 -16 -60 -57 0 -44 19 -66 58 -66 65 0 99 -58 59 -102 -13 -15 -31 -18
-100 -18 l-83 0 0 170 0 170 64 0 c36 0 77 -4 91 -10z"/>
<path d="M5321 2421 c-7 -5 -15 -29 -18 -54 -4 -36 -1 -49 16 -66 19 -19 32
-21 141 -21 66 0 120 -3 120 -6 0 -3 -58 -85 -129 -183 -70 -97 -133 -187
-140 -198 -17 -34 -13 -62 14 -88 l24 -25 219 0 c253 0 257 1 257 74 0 25 -6
51 -13 58 -9 9 -56 15 -147 18 l-135 5 140 194 c151 208 163 238 120 281 -19
19 -33 20 -237 20 -120 0 -224 -4 -232 -9z"/>
<path d="M5889 2413 c-18 -20 -18 -98 -1 -115 9 -9 55 -15 141 -18 l128 -5
-144 -200 c-129 -177 -144 -203 -139 -230 12 -62 24 -65 272 -65 219 0 223 0
238 22 22 31 20 91 -2 111 -14 13 -45 17 -149 19 l-131 3 145 200 c128 177
144 203 139 230 -12 62 -25 65 -266 65 -190 0 -219 -2 -231 -17z"/>
<path d="M6476 2414 c-14 -13 -16 -55 -16 -309 l0 -295 25 -16 c28 -18 98 -15
119 6 8 8 11 100 11 306 0 281 -1 296 -19 310 -27 19 -100 18 -120 -2z"/>
<path d="M5754 1252 c-11 -11 -62 -68 -114 -127 l-95 -108 -3 104 c-3 128 -12
141 -86 137 -77 -5 -77 -4 -74 -335 2 -198 6 -285 15 -294 19 -19 95 -23 118
-6 17 13 21 30 25 126 l5 111 105 -121 c57 -66 112 -125 121 -130 22 -11 47
-3 82 29 50 47 39 70 -112 224 l-75 77 107 110 c121 124 128 143 76 192 -36
33 -67 37 -95 11z"/>
<path d="M3388 1249 c-17 -9 -18 -35 -18 -309 0 -298 0 -299 22 -314 30 -21
81 -20 107 2 20 16 21 28 23 187 l3 170 72 -97 c107 -144 138 -143 243 4 l65
91 5 -171 c3 -110 9 -175 17 -183 19 -19 95 -23 118 -6 19 15 20 29 23 302 3
336 4 335 -77 335 -57 0 -60 -3 -191 -179 -41 -55 -78 -100 -82 -101 -4 0 -50
57 -104 128 -53 70 -104 133 -112 140 -19 14 -90 16 -114 1z"/>
<path d="M4396 1238 c-31 -29 -278 -544 -274 -572 2 -12 20 -30 46 -45 60 -33
84 -20 123 64 l31 65 124 0 124 0 32 -65 c17 -36 40 -71 50 -76 37 -20 118 24
118 64 0 26 -246 536 -273 565 -12 12 -32 22 -48 22 -15 0 -39 -10 -53 -22z
m104 -350 c0 -5 -25 -8 -55 -8 -30 0 -55 2 -55 5 0 2 12 30 27 60 l27 55 28
-52 c15 -29 27 -56 28 -60z"/>
<path d="M4839 1243 c-19 -22 -21 -595 -2 -614 6 -6 31 -14 56 -16 68 -8 87
16 87 107 l0 71 72 -3 72 -3 31 -71 c42 -99 50 -107 100 -101 26 4 48 15 62
31 25 29 23 39 -30 158 l-25 57 23 32 c14 17 29 55 36 84 24 106 -26 211 -122
259 -50 25 -61 26 -200 26 -124 0 -149 -3 -160 -17z m280 -144 c54 -19 69 -83
29 -126 -19 -20 -31 -23 -95 -23 l-73 0 0 80 0 80 54 0 c29 0 67 -5 85 -11z"/>
<path d="M5974 1246 c-18 -14 -19 -29 -19 -310 0 -228 3 -298 13 -308 10 -10
69 -14 234 -16 256 -4 258 -3 258 79 0 74 -13 79 -197 79 l-153 0 0 45 0 45
106 0 c134 0 144 5 144 73 0 29 -5 58 -12 65 -8 8 -50 12 -125 12 l-113 0 0
50 0 50 165 0 c185 0 185 0 185 79 0 70 -3 71 -249 71 -172 0 -221 -3 -237
-14z"/>
<path d="M6510 1241 c-14 -26 -13 -64 3 -84 10 -13 33 -17 117 -19 l105 -3 5
-253 c6 -280 3 -272 73 -272 24 0 44 7 57 20 19 19 20 33 20 265 l0 244 113 3
112 3 3 49 c2 32 -1 52 -10 57 -7 5 -142 9 -300 9 -274 0 -288 -1 -298 -19z"/>
</g>
</svg>
