<?xml version="1.0" standalone="no"?>
<!DOCTYPE svg PUBLIC "-//W3C//DTD SVG 20010904//EN"
 "http://www.w3.org/TR/2001/REC-SVG-20010904/DTD/svg10.dtd">
<svg version="1.0" xmlns="http://www.w3.org/2000/svg"
 width="437.000000pt" height="437.000000pt" viewBox="0 0 437.000000 437.000000"
 preserveAspectRatio="xMidYMid meet">

<g transform="translate(0.000000,437.000000) scale(0.100000,-0.100000)"
fill="#1A51BF" stroke="none">
<path d="M1961 4309 c-471 -50 -930 -265 -1274 -598 -456 -441 -700 -1104
-637 -1732 66 -648 413 -1226 949 -1582 630 -417 1441 -470 2118 -138 230 113
395 231 574 410 179 179 297 344 410 574 471 960 153 2128 -740 2720 -406 269
-920 396 -1400 346z m1256 -772 c147 -90 183 -134 183 -227 0 -61 -7 -76 -179
-360 l-129 -215 152 -5 153 -5 -113 -481 c-61 -265 -119 -495 -128 -513 -23
-44 -74 -100 -117 -127 -86 -54 -99 -55 -710 -52 l-564 3 -55 26 c-64 31 -132
96 -159 154 -11 22 -90 357 -176 744 -86 387 -160 712 -165 721 -22 42 -37 45
-234 50 l-191 5 -3 63 -3 62 196 0 c217 0 243 -6 303 -63 19 -18 42 -48 52
-67 9 -19 41 -144 71 -277 l53 -243 58 0 58 0 0 120 c0 99 3 127 19 158 38 73
104 112 191 112 l50 0 0 50 c0 89 41 157 115 191 31 14 64 19 146 19 98 0 111
-2 160 -28 43 -22 59 -38 81 -81 l28 -53 0 -245 0 -244 57 3 57 3 225 375
c124 206 233 385 242 397 8 12 35 34 60 48 62 37 136 31 216 -18z m-2037
-1132 l0 -65 -395 0 -395 0 0 65 0 65 395 0 395 0 0 -65z m0 -260 l0 -65 -265
0 -265 0 0 58 c0 32 3 62 7 65 3 4 123 7 265 7 l258 0 0 -65z m-5 -265 l0 -65
-127 -3 -128 -3 0 71 0 71 128 -3 127 -3 0 -65z m730 -490 c147 -71 221 -254
165 -404 -29 -76 -94 -147 -169 -183 -48 -24 -68 -28 -141 -28 -72 1 -93 5
-135 27 -189 99 -244 334 -115 497 69 87 151 123 271 118 54 -3 89 -10 124
-27z m1181 -3 c149 -76 220 -270 152 -418 -34 -76 -76 -120 -150 -160 -57 -30
-71 -33 -148 -34 -73 0 -93 4 -142 28 -68 33 -121 90 -156 166 -35 74 -37 183
-5 253 38 84 123 160 213 189 14 5 61 7 105 5 62 -2 91 -8 131 -29z"/>
<path d="M3051 3431 c-18 -18 -421 -683 -421 -695 0 -3 69 -6 153 -6 l152 0
168 279 c156 260 178 307 159 338 -12 18 -154 103 -174 103 -10 0 -26 -8 -37
-19z"/>
<path d="M1981 3231 c-16 -16 -21 -34 -21 -70 0 -47 2 -51 39 -72 78 -44 101
-101 101 -256 l0 -103 65 0 65 0 0 234 c0 292 6 279 -133 284 -86 4 -97 2
-116 -17z"/>
<path d="M1721 2971 c-19 -19 -21 -33 -21 -131 l0 -110 136 0 136 0 -4 110
c-4 142 -6 144 -132 148 -85 4 -96 2 -115 -17z"/>
<path d="M1490 2585 c0 -36 170 -776 185 -804 9 -17 34 -45 57 -61 l41 -30
576 0 576 0 37 23 c44 27 71 61 86 107 11 34 182 763 182 774 0 3 -391 6 -870
6 -771 0 -870 -2 -870 -15z m692 -440 c48 -154 88 -281 88 -283 0 -2 -28 -2
-61 0 l-62 3 -16 55 -17 55 -75 3 -76 3 -16 -61 -17 -60 -61 0 c-45 0 -60 3
-57 13 3 6 43 135 89 285 l84 273 54 -3 55 -3 88 -280z m343 88 c27 -106 52
-193 55 -193 3 0 28 87 56 193 l50 192 77 3 77 3 0 -286 0 -285 -62 0 -61 0 7
182 c3 100 5 180 2 177 -2 -2 -16 -47 -30 -99 -15 -52 -39 -132 -52 -177 l-25
-83 -39 0 -39 0 -20 68 c-11 37 -34 117 -52 177 -17 61 -33 112 -35 114 -2 2
-1 -77 3 -177 l6 -182 -61 0 -62 0 0 285 0 286 78 -3 77 -3 50 -192z"/>
<path d="M2012 2172 c-12 -48 -22 -90 -22 -94 0 -5 23 -8 51 -8 48 0 51 1 45
23 -3 12 -14 51 -22 87 -9 36 -20 68 -23 72 -4 4 -16 -32 -29 -80z"/>
<path d="M1694 1279 c-35 -10 -99 -75 -114 -115 -27 -70 2 -172 62 -217 82
-63 184 -58 258 14 73 71 79 182 13 260 -50 59 -137 82 -219 58z"/>
<path d="M2854 1271 c-121 -55 -146 -219 -47 -313 78 -74 182 -75 263 -2 47
43 64 89 58 160 -11 135 -148 212 -274 155z"/>
</g>
</svg>
