<?xml version="1.0" standalone="no"?>
<!DOCTYPE svg PUBLIC "-//W3C//DTD SVG 20010904//EN"
 "http://www.w3.org/TR/2001/REC-SVG-20010904/DTD/svg10.dtd">
<svg version="1.0" xmlns="http://www.w3.org/2000/svg"
 width="335.000000pt" height="335.000000pt" viewBox="0 0 335.000000 335.000000"
 preserveAspectRatio="xMidYMid meet">

<g transform="translate(0.000000,335.000000) scale(0.100000,-0.100000)"
fill="#1A51BF" stroke="none">
<path d="M1458 3335 c-377 -52 -692 -208 -963 -480 -225 -224 -362 -462 -440
-760 -123 -474 -35 -961 249 -1380 80 -119 292 -331 411 -411 357 -243 761
-342 1168 -289 384 50 697 205 972 480 225 224 362 462 440 760 123 474 35
961 -249 1380 -80 119 -292 331 -411 411 -358 243 -771 344 -1177 289z m1024
-756 c69 -42 96 -67 115 -103 29 -56 14 -99 -106 -299 -61 -102 -111 -188
-111 -191 0 -3 50 -6 110 -6 86 0 110 -3 110 -13 0 -23 -159 -700 -172 -731
-19 -48 -69 -97 -123 -122 -50 -24 -50 -24 -485 -24 -416 0 -437 1 -480 21
-50 23 -105 70 -126 111 -7 14 -66 262 -129 550 -117 527 -128 572 -149 586
-6 4 -76 9 -156 12 l-145 5 -3 48 -3 47 146 0 c159 0 190 -7 239 -56 37 -37
40 -46 81 -232 19 -87 37 -167 40 -179 5 -20 12 -23 50 -23 l45 0 0 96 c0 73
4 103 18 126 22 38 80 68 132 68 39 0 40 0 40 37 0 58 36 120 82 144 34 18 55
20 132 17 77 -2 96 -7 125 -27 55 -39 61 -68 61 -276 l0 -185 44 0 43 0 163
273 c90 149 174 287 188 306 52 69 134 77 224 20z m-1552 -849 l0 -50 -295 0
-295 0 0 50 0 50 295 0 295 0 0 -50z m0 -195 l0 -55 -195 0 -195 0 0 55 0 55
195 0 195 0 0 -55z m0 -195 l0 -50 -100 0 -100 0 0 50 0 50 100 0 100 0 0 -50z
m545 -369 c50 -22 96 -67 121 -118 27 -54 26 -164 -3 -218 -63 -118 -200 -166
-319 -111 -187 87 -194 350 -11 441 63 31 152 34 212 6z m913 -14 c56 -37 98
-97 111 -158 31 -142 -69 -281 -212 -296 -133 -14 -250 78 -272 214 -15 95 46
205 139 250 72 34 175 30 234 -10z"/>
<path d="M2332 2493 c-29 -42 -302 -500 -302 -507 0 -3 51 -6 114 -6 l113 0
127 212 c76 127 126 219 124 232 -4 25 -103 96 -134 96 -13 0 -30 -11 -42 -27z"/>
<path d="M1536 2354 c-9 -8 -16 -32 -16 -54 0 -32 4 -39 30 -50 51 -21 72 -69
78 -176 l5 -94 43 0 44 0 0 185 c0 214 4 205 -104 205 -45 0 -69 -5 -80 -16z"/>
<path d="M1342 2158 c-7 -7 -12 -44 -12 -95 l0 -83 100 0 100 0 0 73 c0 104
-11 117 -104 117 -43 0 -77 -5 -84 -12z"/>
<path d="M1166 1863 c2 -10 33 -148 69 -307 51 -232 69 -294 87 -313 50 -53
45 -53 500 -53 402 0 425 1 455 20 18 10 39 29 47 42 8 13 44 149 80 303 36
154 68 290 71 303 l5 22 -659 0 c-623 0 -659 -1 -655 -17z m466 -150 c21 -25
138 -272 138 -293 0 -19 -43 -42 -63 -34 -8 3 -21 20 -30 39 -16 34 -18 35
-77 35 -59 0 -61 -1 -77 -35 -9 -19 -23 -37 -31 -40 -19 -7 -62 21 -62 40 0
15 124 270 142 293 15 17 42 15 60 -5z m285 -54 l57 -71 21 24 c11 14 37 46
58 72 24 29 46 46 60 46 46 0 48 -7 45 -176 l-3 -159 -40 0 -40 0 -5 89 c-5
86 -6 88 -20 62 -8 -16 -27 -39 -43 -52 -35 -29 -54 -22 -97 38 l-30 41 0 -79
c0 -43 -4 -85 -9 -92 -5 -8 -22 -12 -42 -10 l-34 3 -3 159 c-3 169 -1 176 45
176 15 0 40 -22 80 -71z"/>
<path d="M1591 1562 c-15 -28 -14 -32 9 -32 21 0 26 16 11 39 -7 11 -11 10
-20 -7z"/>
<path d="M1295 871 c-122 -83 -58 -281 86 -268 136 12 186 162 85 256 -37 35
-128 41 -171 12z"/>
<path d="M2185 871 c-66 -40 -88 -113 -57 -184 23 -53 55 -77 111 -84 52 -7
120 25 146 69 41 70 15 167 -55 203 -40 21 -109 19 -145 -4z"/>
</g>
</svg>
