<?xml version="1.0" encoding="utf-8"?>
<!-- Generator: Adobe Illustrator 26.2.1, SVG Export Plug-In . SVG Version: 6.00 Build 0)  -->
<svg version="1.1" id="Livello_1" xmlns="http://www.w3.org/2000/svg" xmlns:xlink="http://www.w3.org/1999/xlink" x="0px" y="0px"
	 width="37px" height="30px" viewBox="0 0 37 30" style="enable-background:new 0 0 37 30;" xml:space="preserve">
<style type="text/css">
	.st0{fill:none;}
	.st1{fill:#231F20;}
	.st2{fill:#FF5F00;}
	.st3{fill:#EB001B;}
	.st4{fill:#F79E1B;}
</style>
<g id="a">
</g>
<g id="b">
</g>
<g id="c">
</g>
<g id="d">
	<g id="e">
		<g id="f">
			<rect x="0.2" class="st0" width="36.6" height="30"/>
			<path class="st1" d="M9.3,26.2v-1.5c0-0.5-0.3-0.9-0.8-1c0,0-0.1,0-0.1,0c-0.3,0-0.7,0.1-0.8,0.4c-0.2-0.3-0.5-0.4-0.8-0.4
				c-0.3,0-0.5,0.1-0.7,0.4v-0.3H5.5v2.4H6v-1.3c0-0.3,0.2-0.6,0.5-0.6c0,0,0.1,0,0.1,0c0.3,0,0.5,0.2,0.5,0.6v1.3h0.5v-1.3
				c0-0.3,0.2-0.6,0.5-0.6c0,0,0.1,0,0.1,0c0.4,0,0.5,0.2,0.5,0.6v1.3L9.3,26.2L9.3,26.2z M17,23.8h-0.9v-0.7h-0.5v0.7h-0.5v0.5h0.5
				v1.1c0,0.5,0.2,0.9,0.8,0.9c0.2,0,0.5-0.1,0.6-0.2L17,25.7c-0.1,0.1-0.3,0.1-0.5,0.1c-0.2,0-0.3-0.2-0.3-0.4v-1.1H17L17,23.8
				L17,23.8z M21.4,23.8c-0.3,0-0.5,0.1-0.6,0.4v-0.3h-0.5v2.4h0.5v-1.3c0-0.4,0.2-0.6,0.5-0.6c0.1,0,0.2,0,0.3,0.1l0.2-0.5
				C21.7,23.8,21.5,23.8,21.4,23.8L21.4,23.8L21.4,23.8z M14.7,24c-0.3-0.2-0.6-0.3-1-0.2c-0.6,0-1,0.3-1,0.8c0,0.4,0.3,0.6,0.8,0.7
				l0.2,0c0.3,0,0.4,0.1,0.4,0.2c0,0.2-0.2,0.3-0.5,0.3c-0.3,0-0.6-0.1-0.8-0.2L12.7,26c0.3,0.2,0.7,0.3,1,0.3
				c0.7,0,1.1-0.3,1.1-0.8s-0.3-0.6-0.8-0.7l-0.2,0c-0.2,0-0.4-0.1-0.4-0.2s0.2-0.3,0.4-0.3c0.3,0,0.5,0.1,0.8,0.2L14.7,24L14.7,24z
				 M28.6,23.8c-0.3,0-0.5,0.1-0.6,0.4v-0.3h-0.5v2.4H28v-1.3c0-0.4,0.2-0.6,0.5-0.6c0.1,0,0.2,0,0.3,0.1l0.2-0.5
				C28.9,23.8,28.7,23.8,28.6,23.8L28.6,23.8L28.6,23.8z M21.9,25.1c0,0.7,0.5,1.2,1.2,1.2c0,0,0.1,0,0.1,0c0.3,0,0.6-0.1,0.9-0.3
				l-0.2-0.4c-0.2,0.1-0.4,0.2-0.6,0.2c-0.4,0-0.7-0.4-0.7-0.8c0-0.4,0.3-0.7,0.7-0.7c0.2,0,0.4,0.1,0.6,0.2l0.2-0.4
				c-0.2-0.2-0.5-0.3-0.9-0.3c-0.7,0-1.2,0.5-1.3,1.1C21.9,25,21.9,25,21.9,25.1L21.9,25.1L21.9,25.1z M26.8,25.1v-1.2h-0.5v0.3
				c-0.2-0.2-0.5-0.4-0.8-0.4c-0.7,0-1.2,0.6-1.2,1.2s0.6,1.2,1.2,1.2c0.3,0,0.6-0.1,0.8-0.4v0.3h0.5V25.1z M24.9,25.1
				c0-0.4,0.4-0.7,0.8-0.7s0.7,0.4,0.7,0.8c0,0.4-0.3,0.7-0.7,0.7C25.2,25.8,24.9,25.5,24.9,25.1C24.9,25.1,24.9,25.1,24.9,25.1
				L24.9,25.1z M18.6,23.8c-0.7,0-1.2,0.6-1.2,1.3s0.6,1.2,1.3,1.2l0,0c0.4,0,0.7-0.1,1-0.3l-0.2-0.4c-0.2,0.2-0.4,0.2-0.7,0.2
				c-0.4,0-0.7-0.2-0.7-0.6h1.8v-0.2C19.8,24.3,19.3,23.8,18.6,23.8L18.6,23.8L18.6,23.8z M18.6,24.3c0.3,0,0.6,0.2,0.6,0.6H18
				C18,24.5,18.3,24.2,18.6,24.3L18.6,24.3L18.6,24.3z M31.6,25.1v-2.1h-0.5v1.2c-0.2-0.2-0.5-0.4-0.8-0.4c-0.7,0-1.2,0.6-1.2,1.2
				s0.6,1.2,1.2,1.2c0.3,0,0.6-0.1,0.8-0.4v0.3h0.5V25.1L31.6,25.1z M32.4,25.9C32.4,25.9,32.5,25.9,32.4,25.9
				c0.1,0,0.1,0.1,0.2,0.1c0,0,0,0,0,0.1c0,0.1,0,0.1,0,0.2c0,0,0,0,0,0.1s0,0-0.1,0c0,0-0.1,0-0.1,0c-0.1,0-0.2-0.1-0.2-0.1
				c0-0.1,0-0.1,0-0.2c0,0,0,0,0-0.1S32.3,25.9,32.4,25.9C32.4,25.9,32.4,25.9,32.4,25.9L32.4,25.9L32.4,25.9z M32.4,26.3
				C32.4,26.3,32.5,26.3,32.4,26.3c0.1,0,0.1,0,0.1-0.1c0.1-0.1,0.1-0.2,0-0.2c0,0,0,0-0.1,0c0,0,0,0-0.1,0c0,0,0,0-0.1,0
				c0,0,0,0-0.1,0c-0.1,0.1-0.1,0.2,0,0.2C32.3,26.3,32.4,26.3,32.4,26.3C32.4,26.3,32.4,26.3,32.4,26.3L32.4,26.3L32.4,26.3z
				 M32.5,26C32.5,26,32.5,26,32.5,26C32.5,26,32.5,26.1,32.5,26c0.1,0.1,0.1,0.1,0.1,0.1c0,0,0,0,0,0l0.1,0.1h-0.1l-0.1-0.1h0v0.1
				h0V26L32.5,26L32.5,26z M32.4,26.1L32.4,26.1L32.4,26.1C32.5,26.1,32.5,26.1,32.4,26.1L32.4,26.1L32.4,26.1
				C32.5,26.1,32.5,26.1,32.4,26.1L32.4,26.1L32.4,26.1z M29.7,25c0-0.4,0.4-0.7,0.8-0.7s0.7,0.4,0.7,0.8c0,0.4-0.3,0.7-0.7,0.7
				C30,25.8,29.7,25.5,29.7,25C29.7,25.1,29.7,25,29.7,25L29.7,25z M12.2,25v-1.2h-0.5v0.3c-0.2-0.2-0.5-0.4-0.8-0.4
				c-0.7,0-1.2,0.6-1.2,1.2s0.6,1.2,1.2,1.2c0.3,0,0.6-0.1,0.8-0.4v0.3h0.5V25L12.2,25z M10.2,25c0-0.4,0.4-0.7,0.8-0.7
				s0.7,0.4,0.7,0.8c0,0.4-0.3,0.7-0.7,0.7C10.6,25.8,10.2,25.5,10.2,25C10.2,25.1,10.2,25,10.2,25L10.2,25L10.2,25z"/>
			<g id="g">
				<rect x="14.6" y="5.7" class="st2" width="7.9" height="14.1"/>
				<path id="h" class="st3" d="M15.1,12.8c0-2.8,1.3-5.3,3.4-7.1C14.6,2.6,9,3.3,5.9,7.2s-2.4,9.5,1.5,12.6c3.2,2.6,7.8,2.6,11.1,0
					C16.3,18.1,15.1,15.5,15.1,12.8z"/>
				<path class="st4" d="M33,12.8c0,5-4,9-9,9c-2,0-4-0.7-5.5-1.9c3.9-3.1,4.6-8.7,1.5-12.6c-0.4-0.6-1-1.1-1.5-1.5
					c3.9-3.1,9.5-2.4,12.6,1.5C32.3,8.8,33,10.7,33,12.8C33,12.8,33,12.8,33,12.8z"/>
				<path class="st4" d="M32.2,18.3V18h0.1v-0.1H32V18h0.1L32.2,18.3L32.2,18.3z M32.7,18.3v-0.4h-0.1l-0.1,0.2l-0.1-0.2h-0.1v0.4
					h0.1V18l0.1,0.2h0.1l0.1-0.2L32.7,18.3L32.7,18.3L32.7,18.3z"/>
			</g>
		</g>
	</g>
</g>
</svg>
