<?xml version="1.0" encoding="utf-8"?>
<!-- Generator: Adobe Illustrator 26.2.1, SVG Export Plug-In . SVG Version: 6.00 Build 0)  -->
<svg version="1.1" id="Livello_1" xmlns="http://www.w3.org/2000/svg" xmlns:xlink="http://www.w3.org/1999/xlink" x="0px" y="0px"
	 width="57px" height="30px" viewBox="0 0 57 30" style="enable-background:new 0 0 57 30;" xml:space="preserve">
<style type="text/css">
	.st0{clip-path:url(#SVGID_00000125600354120951404680000007898381334756874638_);}
	.st1{clip-path:url(#SVGID_00000049909494669924980060000013554619047811132548_);}
	.st2{fill:#336699;}
	.st3{clip-path:url(#SVGID_00000124121440146912547520000009746683405944916617_);}
	.st4{fill:#1C3664;}
	.st5{clip-path:url(#SVGID_00000029004422130555093480000014737377861815257251_);}
</style>
<g id="a">
</g>
<g id="b">
	<g>
		<defs>
			<rect id="SVGID_1_" width="57" height="30"/>
		</defs>
		<clipPath id="SVGID_00000059273065862162889520000009235447397156561313_">
			<use xlink:href="#SVGID_1_"  style="overflow:visible;"/>
		</clipPath>
		<g style="clip-path:url(#SVGID_00000059273065862162889520000009235447397156561313_);">
			<g>
				<defs>
					<rect id="SVGID_00000035494746727629318380000014831334414323070360_" width="57" height="30"/>
				</defs>
				<clipPath id="SVGID_00000083785596377437338110000010190943439158483097_">
					<use xlink:href="#SVGID_00000035494746727629318380000014831334414323070360_"  style="overflow:visible;"/>
				</clipPath>
				<g style="clip-path:url(#SVGID_00000083785596377437338110000010190943439158483097_);">
					<path class="st2" d="M43.5,16.5c-0.2,0.1-0.4,0.2-0.6,0.3C42.6,17,42.4,17,42.1,17c-0.4,0-0.7,0-0.9-0.2
						c-0.2-0.1-0.3-0.3-0.3-0.6c0-0.3,0.1-0.6,0.2-0.8c0.2-0.2,0.4-0.3,0.7-0.4c0.3-0.1,0.6-0.2,1-0.2c0.4-0.1,1.1-0.1,1.2-0.1
						s0.2-0.1,0.1,0.2c0,0.1-0.2,0.9-0.3,1.3C43.8,16.3,43.6,16.5,43.5,16.5 M46.3,10.7c-0.6-0.3-1.5-0.5-2.8-0.5
						c-0.6,0-1.3,0.1-1.9,0.1c-0.5,0.1-0.5,0.1-0.8,0.1c-0.6,0.1-0.7,0.7-0.7,0.7L39.9,12c-0.1,0.5,0.2,0.5,0.3,0.4
						c0.3-0.1,0.4-0.2,0.9-0.3c0.5-0.1,1-0.2,1.5-0.2c0.6,0,1.1,0.1,1.4,0.2c0.3,0.1,0.5,0.4,0.5,0.7c0,0.1,0,0.2,0,0.2
						s-0.1,0.1-0.2,0.1c-0.9,0.1-1.5,0.1-2.3,0.2c-0.8,0.1-1.4,0.3-2,0.5c-0.6,0.3-1,0.6-1.3,1.1s-0.5,1-0.5,1.6
						c0,0.6,0.2,1.1,0.6,1.5s1,0.6,1.7,0.6c0.4,0,0.7,0,1-0.1c0.2-0.1,0.5-0.1,0.8-0.3c0.2-0.1,0.4-0.2,0.6-0.4
						c0.2-0.1,0.4-0.3,0.6-0.4l0,0l-0.1,0.3l0,0c-0.1,0.3,0.1,0.6,0.4,0.6h0c0.2,0,0.9,0,1.2,0h0.2h0c0.3,0,0.6-0.3,0.7-0.6l1.1-4.9
						c0-0.1,0-0.2,0.1-0.4c0-0.2,0-0.3,0-0.4C47.2,11.5,46.9,11,46.3,10.7"/>
				</g>
			</g>
			<g>
				<defs>
					<rect id="SVGID_00000031886661072496932930000012154983295335973029_" x="0.2" y="7.7" width="56.7" height="14.5"/>
				</defs>
				<clipPath id="SVGID_00000090997894930233112080000004897629207795861929_">
					<use xlink:href="#SVGID_00000031886661072496932930000012154983295335973029_"  style="overflow:visible;"/>
				</clipPath>
				<g style="clip-path:url(#SVGID_00000090997894930233112080000004897629207795861929_);">
					<path class="st4" d="M26.7,10.3c-0.3,0-0.8,0.3-1,0.6c0,0-2.2,3.8-2.5,4.2c-0.1,0.2-0.2,0.1-0.3,0c0-0.1-0.7-4.2-0.7-4.2
						c-0.1-0.3-0.4-0.6-0.9-0.6h-1.4c-0.3,0-0.5,0.3-0.5,0.6c0,0,1.1,6,1.3,7.5c0.1,0.8,0,0.9,0,0.9l-1.4,2.4
						c-0.2,0.3-0.1,0.6,0.2,0.6h1.6c0.3,0,0.8-0.3,1-0.6l6.2-10.5c0,0,0.6-0.9,0-0.9C28.2,10.3,26.7,10.3,26.7,10.3"/>
					<path class="st4" d="M10.4,9.3C10.2,8.9,10,8.6,9.6,8.4C9.2,8.1,8.7,8,8.2,7.9C7.7,7.8,7.1,7.7,6.4,7.7H3.1
						C2.8,7.7,2.5,8,2.4,8.3l-2.2,9.5c-0.1,0.3,0.1,0.6,0.5,0.6h1.6c0.3,0,0.7-0.3,0.8-0.6l0.5-2.3C3.6,15.2,3.9,15,4.2,15h0.4
						c1.9,0,3.4-0.4,4.4-1.2s1.6-1.8,1.6-3.1C10.7,10.1,10.6,9.7,10.4,9.3 M7.1,12.4c-0.5,0.3-1.1,0.5-2,0.5H4.7
						c-0.3,0-0.6-0.3-0.5-0.6l0.5-2C4.8,10,5.1,9.7,5.4,9.7H6C6.6,9.7,7,9.8,7.3,10c0.3,0.2,0.4,0.5,0.4,0.9
						C7.8,11.6,7.5,12.1,7.1,12.4"/>
				</g>
			</g>
			<g>
				<defs>
					<rect id="SVGID_00000072960106470867774800000006682138877643272638_" width="57" height="30"/>
				</defs>
				<clipPath id="SVGID_00000054226258837531207690000013816779959580041632_">
					<use xlink:href="#SVGID_00000072960106470867774800000006682138877643272638_"  style="overflow:visible;"/>
				</clipPath>
				<g style="clip-path:url(#SVGID_00000054226258837531207690000013816779959580041632_);">
					<path class="st2" d="M38.8,9.3c-0.2-0.4-0.5-0.7-0.9-0.9c-0.4-0.2-0.8-0.4-1.4-0.5c-0.5-0.1-1.1-0.1-1.8-0.1h-3.3
						c-0.3,0-0.7,0.3-0.7,0.6l-2.2,9.6c-0.1,0.3,0.1,0.6,0.5,0.6h1.6c0.3,0,0.7-0.3,0.8-0.6l0.5-2.3c0.1-0.3,0.4-0.6,0.8-0.6H33
						c1.9,0,3.4-0.4,4.5-1.2s1.6-1.8,1.6-3.1C39.1,10.2,39,9.7,38.8,9.3 M35.4,12.5c-0.5,0.3-1.1,0.5-2,0.5H33
						c-0.3,0-0.5-0.3-0.5-0.6l0.5-2c0.1-0.3,0.4-0.6,0.7-0.6h0.5c0.6,0,1,0.1,1.4,0.3c0.3,0.2,0.5,0.5,0.5,0.9
						C36.1,11.6,35.9,12.1,35.4,12.5"/>
					<path class="st4" d="M15.2,16.5c-0.2,0.1-0.4,0.2-0.6,0.3C14.3,17,14,17,13.8,17c-0.4,0-0.7-0.1-0.9-0.2
						c-0.2-0.1-0.3-0.3-0.3-0.6c0-0.3,0.1-0.6,0.2-0.8c0.1-0.2,0.4-0.3,0.7-0.4c0.3-0.1,0.6-0.2,1-0.2c0.4,0,1.1-0.1,1.1-0.1
						s0.1-0.1,0.1,0.2c0,0.1-0.2,0.9-0.3,1.3C15.4,16.3,15.3,16.5,15.2,16.5 M18,10.7c-0.6-0.3-1.5-0.5-2.8-0.5
						c-0.6,0-1.3,0.1-1.9,0.1c-0.5,0.1-0.5,0.1-0.8,0.1c-0.6,0.1-0.7,0.7-0.7,0.7L11.6,12c-0.1,0.5,0.2,0.5,0.3,0.4
						c0.3-0.1,0.4-0.2,0.9-0.3c0.5-0.1,1-0.2,1.5-0.2c0.6,0,1.1,0.1,1.4,0.2c0.3,0.1,0.5,0.4,0.5,0.7c0,0.1,0,0.2,0,0.2
						c0,0.1-0.1,0.1-0.2,0.1c-0.9,0.1-1.5,0.1-2.3,0.2c-0.8,0.1-1.4,0.3-2,0.5c-0.6,0.3-1,0.6-1.3,1.1c-0.3,0.4-0.4,1-0.4,1.6
						c0,0.6,0.2,1.1,0.6,1.5s1,0.6,1.6,0.6c0.4,0,0.7,0,1-0.1c0.2-0.1,0.5-0.1,0.8-0.3c0.2-0.1,0.4-0.2,0.6-0.4
						c0.2-0.1,0.4-0.3,0.6-0.4l0,0L15,17.9l0,0c-0.1,0.3,0.1,0.6,0.4,0.6h0c0.2,0,0.9,0,1.2,0h0.2h0c0.3,0,0.6-0.3,0.7-0.6l1.1-4.9
						c0-0.1,0-0.2,0.1-0.4c0-0.2,0-0.3,0-0.4C18.8,11.5,18.5,11,18,10.7"/>
					<path class="st2" d="M51.7,7.8h-1.4c-0.3,0-0.6,0.2-0.7,0.6c0,0,0,0,0,0c0,0,0,0.1-0.1,0.4l-1.9,8.7c0,0.2-0.1,0.3-0.1,0.4l0,0
						c-0.1,0.3,0.1,0.6,0.4,0.6h1.5c0.3,0,0.6-0.2,0.7-0.5c0,0,0,0,0,0l2.1-9.5l0,0C52.2,8.1,52,7.9,51.7,7.8"/>
					<path class="st2" d="M54.3,9.8c0,0-0.1,0-0.2,0c-0.1,0-0.1,0-0.2,0c-0.2,0-0.3,0-0.3-0.1c-0.1-0.1-0.1-0.2-0.1-0.4V8.5h-0.2
						V8.3h0.2V7.8h0.3v0.4h0.5v0.2h-0.5v0.7c0,0.1,0,0.1,0,0.2c0,0,0,0.1,0,0.1s0,0.1,0.1,0.1c0,0,0.1,0,0.2,0c0,0,0.1,0,0.1,0
						c0,0,0.1,0,0.1,0h0C54.3,9.5,54.3,9.8,54.3,9.8z"/>
					<path class="st2" d="M56.8,9.8h-0.3V8.9c0-0.1,0-0.1,0-0.2c0-0.1,0-0.1,0-0.1s0-0.1-0.1-0.1s-0.1,0-0.2,0s-0.1,0-0.2,0.1
						c-0.1,0-0.1,0.1-0.2,0.1c0,0,0,0,0,0.1s0,0.1,0,0.1v1h-0.3V8.9c0-0.1,0-0.1,0-0.2c0-0.1,0-0.1,0-0.1c0,0,0-0.1-0.1-0.1
						s-0.1,0-0.2,0s-0.1,0-0.2,0.1s-0.1,0.1-0.2,0.1v1.1h-0.3V8.3h0.3v0.2c0.1-0.1,0.2-0.1,0.2-0.1c0.1,0,0.2-0.1,0.2-0.1
						c0.1,0,0.2,0,0.3,0.1s0.1,0.1,0.2,0.2c0.1-0.1,0.2-0.1,0.3-0.2c0.1,0,0.2-0.1,0.3-0.1c0.2,0,0.3,0.1,0.4,0.1
						c0.1,0.1,0.1,0.2,0.1,0.4L56.8,9.8L56.8,9.8z"/>
				</g>
			</g>
		</g>
	</g>
</g>
<g id="g">
</g>
<g id="h">
</g>
</svg>
