<?xml version="1.0" encoding="utf-8"?>
<!-- Generator: Adobe Illustrator 26.2.1, SVG Export Plug-In . SVG Version: 6.00 Build 0)  -->
<svg version="1.1" id="Livello_1" xmlns="http://www.w3.org/2000/svg" xmlns:xlink="http://www.w3.org/1999/xlink" x="0px" y="0px"
	 width="50px" height="30px" viewBox="0 0 50 30" style="enable-background:new 0 0 50 30;" xml:space="preserve">
<style type="text/css">
	.st0{fill:#00249F;}
	.st1{fill:#FFA000;}
</style>
<g id="a">
	<g>
		<polygon class="st0" points="17.6,22.4 20.1,7.6 24.2,7.6 21.7,22.4 		"/>
		<path class="st0" d="M36.3,8c-0.8-0.3-2.1-0.6-3.6-0.6c-4,0-6.8,2-6.8,4.9c0,2.1,2,3.3,3.5,4c1.6,0.7,2.1,1.2,2.1,1.8
			c0,1-1.3,1.5-2.4,1.5c-1.6,0-2.5-0.2-3.8-0.8l-0.5-0.2l-0.6,3.3c1,0.4,2.7,0.8,4.5,0.8c4.3,0,7-2,7-5.1c0-1.7-1.1-3-3.4-4
			c-1.4-0.7-2.3-1.1-2.3-1.8c0-0.6,0.7-1.3,2.3-1.3c1.3,0,2.3,0.3,3,0.6l0.4,0.2L36.3,8"/>
		<path class="st0" d="M46.7,7.6h-3.1c-1,0-1.7,0.3-2.1,1.2l-6,13.6h4.2c0,0,0.7-1.8,0.8-2.2c0.5,0,4.6,0,5.2,0
			c0.1,0.5,0.5,2.2,0.5,2.2H50L46.7,7.6 M41.7,17.2c0.3-0.9,1.6-4.1,1.6-4.1c0,0,0.3-0.9,0.5-1.4l0.3,1.3c0,0,0.8,3.6,0.9,4.3H41.7z
			"/>
		<path class="st0" d="M14.2,7.6l-4,10.1l-0.4-2.1c-0.7-2.4-3-4.9-5.6-6.2l3.6,13h4.3l6.4-14.8L14.2,7.6"/>
		<path class="st1" d="M6.6,7.6H0.1L0,7.9c5.1,1.2,8.4,4.2,9.8,7.8L8.4,8.9C8.2,7.9,7.4,7.6,6.6,7.6"/>
	</g>
</g>
<g id="b">
</g>
<g id="c">
</g>
<g id="d">
</g>
</svg>
