<svg xmlns="http://www.w3.org/2000/svg" width="446.667" height="446.667" version="1.0" viewBox="0 0 335 335"><g fill="#1A51BF"><path d="M145.8 1.5c-37.7 5.2-69.2 20.8-96.3 48-22.5 22.4-36.2 46.2-44 76-12.3 47.4-3.5 96.1 24.9 138 8 11.9 29.2 33.1 41.1 41.1 35.7 24.3 76.1 34.2 116.8 28.9 38.4-5 69.7-20.5 97.2-48 22.5-22.4 36.2-46.2 44-76 12.3-47.4 3.5-96.1-24.9-138-8-11.9-29.2-33.1-41.1-41.1C227.7 6.1 186.4-4 145.8 1.5zm102.4 75.6c6.9 4.2 9.6 6.7 11.5 10.3 2.9 5.6 1.4 9.9-10.6 29.9-6.1 10.2-11.1 18.8-11.1 19.1 0 .3 5 .6 11 .6 8.6 0 11 .3 11 1.3 0 2.3-15.9 70-17.2 73.1-1.9 4.8-6.9 9.7-12.3 12.2-5 2.4-5 2.4-48.5 2.4-41.6 0-43.7-.1-48-2.1-5-2.3-10.5-7-12.6-11.1-.7-1.4-6.6-26.2-12.9-55-11.7-52.7-12.8-57.2-14.9-58.6-.6-.4-7.6-.9-15.6-1.2l-14.5-.5-.3-4.8-.3-4.7h14.6c15.9 0 19 .7 23.9 5.6 3.7 3.7 4 4.6 8.1 23.2 1.9 8.7 3.7 16.7 4 17.9.5 2 1.2 2.3 5 2.3h4.5v-9.6c0-7.3.4-10.3 1.8-12.6 2.2-3.8 8-6.8 13.2-6.8 3.9 0 4 0 4-3.7 0-5.8 3.6-12 8.2-14.4 3.4-1.8 5.5-2 13.2-1.7 7.7.2 9.6.7 12.5 2.7 5.5 3.9 6.1 6.8 6.1 27.6V137h8.7l16.3-27.3c9-14.9 17.4-28.7 18.8-30.6 5.2-6.9 13.4-7.7 22.4-2zM93 162v5H34v-10h59v5zm0 19.5v5.5H54v-11h39v5.5zm0 19.5v5H73v-10h20v5zm54.5 36.9c5 2.2 9.6 6.7 12.1 11.8 2.7 5.4 2.6 16.4-.3 21.8-6.3 11.8-20 16.6-31.9 11.1-18.7-8.7-19.4-35-1.1-44.1 6.3-3.1 15.2-3.4 21.2-.6zm91.3 1.4c5.6 3.7 9.8 9.7 11.1 15.8 3.1 14.2-6.9 28.1-21.2 29.6-13.3 1.4-25-7.8-27.2-21.4-1.5-9.5 4.6-20.5 13.9-25 7.2-3.4 17.5-3 23.4 1z"/><path d="M233.2 85.7c-2.9 4.2-30.2 50-30.2 50.7 0 .3 5.1.6 11.4.6h11.3l12.7-21.2c7.6-12.7 12.6-21.9 12.4-23.2-.4-2.5-10.3-9.6-13.4-9.6-1.3 0-3 1.1-4.2 2.7zm-79.6 13.9c-.9.8-1.6 3.2-1.6 5.4 0 3.2.4 3.9 3 5 5.1 2.1 7.2 6.9 7.8 17.6l.5 9.4h8.7v-18.5c0-21.4.4-20.5-10.4-20.5-4.5 0-6.9.5-8 1.6zm-19.4 19.6c-.7.7-1.2 4.4-1.2 9.5v8.3h20v-7.3c0-10.4-1.1-11.7-10.4-11.7-4.3 0-7.7.5-8.4 1.2zm-17.6 29.5c.2 1 3.3 14.8 6.9 30.7 5.1 23.2 6.9 29.4 8.7 31.3 5 5.3 4.5 5.3 50 5.3 40.2 0 42.5-.1 45.5-2 1.8-1 3.9-2.9 4.7-4.2.8-1.3 4.4-14.9 8-30.3 3.6-15.4 6.8-29 7.1-30.3l.5-2.2h-65.9c-62.3 0-65.9.1-65.5 1.7zm46.6 15c2.1 2.5 13.8 27.2 13.8 29.3 0 1.9-4.3 4.2-6.3 3.4-.8-.3-2.1-2-3-3.9-1.6-3.4-1.8-3.5-7.7-3.5s-6.1.1-7.7 3.5c-.9 1.9-2.3 3.7-3.1 4-1.9.7-6.2-2.1-6.2-4 0-1.5 12.4-27 14.2-29.3 1.5-1.7 4.2-1.5 6 .5zm28.5 5.4 5.7 7.1 2.1-2.4c1.1-1.4 3.7-4.6 5.8-7.2 2.4-2.9 4.6-4.6 6-4.6 4.6 0 4.8.7 4.5 17.6l-.3 15.9h-8l-.5-8.9c-.5-8.6-.6-8.8-2-6.2-.8 1.6-2.7 3.9-4.3 5.2-3.5 2.9-5.4 2.2-9.7-3.8l-3-4.1v7.9c0 4.3-.4 8.5-.9 9.2-.5.8-2.2 1.2-4.2 1l-3.4-.3-.3-15.9c-.3-16.9-.1-17.6 4.5-17.6 1.5 0 4 2.2 8 7.1z"/><path d="M159.1 178.8c-1.5 2.8-1.4 3.2.9 3.2 2.1 0 2.6-1.6 1.1-3.9-.7-1.1-1.1-1-2 .7zm-29.6 69.1c-12.2 8.3-5.8 28.1 8.6 26.8 13.6-1.2 18.6-16.2 8.5-25.6-3.7-3.5-12.8-4.1-17.1-1.2zm89 0c-6.6 4-8.8 11.3-5.7 18.4 2.3 5.3 5.5 7.7 11.1 8.4 5.2.7 12-2.5 14.6-6.9 4.1-7 1.5-16.7-5.5-20.3-4-2.1-10.9-1.9-14.5.4z"/></g></svg>