<svg xmlns="http://www.w3.org/2000/svg" width="582.667" height="582.667" version="1.0" viewBox="0 0 437 437"><g fill="#1A51BF"><path d="M196.1 6.1c-47.1 5-93 26.5-127.4 59.8C23.1 110-1.3 176.3 5 239.1c6.6 64.8 41.3 122.6 94.9 158.2 63 41.7 144.1 47 211.8 13.8 23-11.3 39.5-23.1 57.4-41s29.7-34.4 41-57.4c47.1-96 15.3-212.8-74-272-40.6-26.9-92-39.6-140-34.6zm125.6 77.2c14.7 9 18.3 13.4 18.3 22.7 0 6.1-.7 7.6-17.9 36l-12.9 21.5 15.2.5 15.3.5-11.3 48.1c-6.1 26.5-11.9 49.5-12.8 51.3-2.3 4.4-7.4 10-11.7 12.7-8.6 5.4-9.9 5.5-71 5.2l-56.4-.3-5.5-2.6c-6.4-3.1-13.2-9.6-15.9-15.4-1.1-2.2-9-35.7-17.6-74.4-8.6-38.7-16-71.2-16.5-72.1-2.2-4.2-3.7-4.5-23.4-5l-19.1-.5-.3-6.3-.3-6.2h19.6c21.7 0 24.3.6 30.3 6.3 1.9 1.8 4.2 4.8 5.2 6.7.9 1.9 4.1 14.4 7.1 27.7l5.3 24.3H157v-12c0-9.9.3-12.7 1.9-15.8 3.8-7.3 10.4-11.2 19.1-11.2h5v-5c0-8.9 4.1-15.7 11.5-19.1 3.1-1.4 6.4-1.9 14.6-1.9 9.8 0 11.1.2 16 2.8 4.3 2.2 5.9 3.8 8.1 8.1l2.8 5.3v48.9l5.7-.3 5.7-.3 22.5-37.5c12.4-20.6 23.3-38.5 24.2-39.7.8-1.2 3.5-3.4 6-4.8 6.2-3.7 13.6-3.1 21.6 1.8zM118 196.5v6.5H39v-13h79v6.5zm0 26v6.5H65v-5.8c0-3.2.3-6.2.7-6.5.3-.4 12.3-.7 26.5-.7H118v6.5zm-.5 26.5v6.5l-12.7.3-12.8.3v-14.2l12.8.3 12.7.3v6.5zm73 49c14.7 7.1 22.1 25.4 16.5 40.4-2.9 7.6-9.4 14.7-16.9 18.3-4.8 2.4-6.8 2.8-14.1 2.8-7.2-.1-9.3-.5-13.5-2.7-18.9-9.9-24.4-33.4-11.5-49.7 6.9-8.7 15.1-12.3 27.1-11.8 5.4.3 8.9 1 12.4 2.7zm118.1.3c14.9 7.6 22 27 15.2 41.8-3.4 7.6-7.6 12-15 16-5.7 3-7.1 3.3-14.8 3.4-7.3 0-9.3-.4-14.2-2.8-6.8-3.3-12.1-9-15.6-16.6-3.5-7.4-3.7-18.3-.5-25.3 3.8-8.4 12.3-16 21.3-18.9 1.4-.5 6.1-.7 10.5-.5 6.2.2 9.1.8 13.1 2.9z"/><path d="M305.1 93.9c-1.8 1.8-42.1 68.3-42.1 69.5 0 .3 6.9.6 15.3.6h15.2l16.8-27.9c15.6-26 17.8-30.7 15.9-33.8-1.2-1.8-15.4-10.3-17.4-10.3-1 0-2.6.8-3.7 1.9zm-107 20c-1.6 1.6-2.1 3.4-2.1 7 0 4.7.2 5.1 3.9 7.2 7.8 4.4 10.1 10.1 10.1 25.6V164h13v-23.4c0-29.2.6-27.9-13.3-28.4-8.6-.4-9.7-.2-11.6 1.7zm-26 26c-1.9 1.9-2.1 3.3-2.1 13.1v11h27.2l-.4-11c-.4-14.2-.6-14.4-13.2-14.8-8.5-.4-9.6-.2-11.5 1.7zM149 178.5c0 3.6 17 77.6 18.5 80.4.9 1.7 3.4 4.5 5.7 6.1l4.1 3h115.2l3.7-2.3c4.4-2.7 7.1-6.1 8.6-10.7 1.1-3.4 18.2-76.3 18.2-77.4 0-.3-39.1-.6-87-.6-77.1 0-87 .2-87 1.5zm69.2 44c4.8 15.4 8.8 28.1 8.8 28.3 0 .2-2.8.2-6.1 0l-6.2-.3-1.6-5.5-1.7-5.5-7.5-.3-7.6-.3-1.6 6.1-1.7 6h-6.1c-4.5 0-6-.3-5.7-1.3.3-.6 4.3-13.5 8.9-28.5l8.4-27.3 5.4.3 5.5.3 8.8 28zm34.3-8.8c2.7 10.6 5.2 19.3 5.5 19.3.3 0 2.8-8.7 5.6-19.3l5-19.2 7.7-.3 7.7-.3V251h-12.3l.7-18.2c.3-10 .5-18 .2-17.7-.2.2-1.6 4.7-3 9.9-1.5 5.2-3.9 13.2-5.2 17.7l-2.5 8.3h-7.8l-2-6.8c-1.1-3.7-3.4-11.7-5.2-17.7-1.7-6.1-3.3-11.2-3.5-11.4-.2-.2-.1 7.7.3 17.7l.6 18.2H232v-57.1l7.8.3 7.7.3 5 19.2z"/><path d="M201.2 219.8c-1.2 4.8-2.2 9-2.2 9.4 0 .5 2.3.8 5.1.8 4.8 0 5.1-.1 4.5-2.3-.3-1.2-1.4-5.1-2.2-8.7-.9-3.6-2-6.8-2.3-7.2-.4-.4-1.6 3.2-2.9 8zm-31.8 89.3c-3.5 1-9.9 7.5-11.4 11.5-2.7 7 .2 17.2 6.2 21.7 8.2 6.3 18.4 5.8 25.8-1.4 7.3-7.1 7.9-18.2 1.3-26-5-5.9-13.7-8.2-21.9-5.8zm116 .8c-12.1 5.5-14.6 21.9-4.7 31.3 7.8 7.4 18.2 7.5 26.3.2 4.7-4.3 6.4-8.9 5.8-16-1.1-13.5-14.8-21.2-27.4-15.5z"/></g></svg>